<?xml version="1.0" encoding="utf-8"?>
<!-- Generator: Adobe Illustrator 21.0.1, SVG Export Plug-In . SVG Version: 6.00 Build 0)  -->
<svg version="1.1" id="e87ddc62-7528-42a5-8b37-f74ed0351019"
	 xmlns="http://www.w3.org/2000/svg" xmlns:xlink="http://www.w3.org/1999/xlink" x="0px" y="0px" viewBox="0 0 1131 812.2"
	 style="enable-background:new 0 0 1131 812.2;" xml:space="preserve">
<style type="text/css">
	.st0{opacity:0.3;fill:#FFC107;enable-background:new    ;}
	.st1{fill:none;stroke:#3F3D56;stroke-miterlimit:10;}
	.st2{fill:#FFC107;}
	.st3{fill:#F2F2F2;}
	.st4{fill:#FC7575;}
	.st5{fill:#5975D1;}
	.st6{fill:#6A6A6A;}
	.st7{fill:#4E4F56;}
	.st8{fill:#0D232B;}
	.st9{fill:#2D1E66;}
	.st10{fill:#6265A8;}
	.st11{fill:#A4D6C9;}
	.st12{fill:#00FF00;}
	.st13{fill:#381A3F;}
	.st14{fill:#0F1D5B;}
	.st15{fill:#2A417F;}
	.st16{fill:#5994B3;}
	.st17{fill:#FD5E5A;}
	.st18{fill:#5C2C55;}
	.st19{fill:#18287D;}
	.st20{fill:#22346D;}
	.st21{opacity:0.53;fill:#778099;}
	.st22{opacity:0.53;}
	.st23{fill:#D1D1D1;}
	.st24{fill:#565454;}
	.st25{fill:#59F6D1;}
	.st26{fill:#4E5389;}
	.st27{fill:#363A68;}
	.st28{fill:#FFA6A6;}
	.st29{fill:#464A7F;}
	.st30{fill:#59D5B3;}
	.st31{fill:#FF0000;}
	.st32{fill:#39B54A;}
	.st33{fill:#797A7F;}
	.st34{fill:#C2D6FF;}
	.st35{fill:#555699;}
	.st36{fill:#111F59;}
	.st37{fill:#8D9596;}
	.st38{fill:#C7FCEA;}
	.st39{fill:#8894A8;}
	.st40{fill:#757F8E;}
</style>
<title>software engineer</title>
<rect x="689.3" y="51.3" class="st0" width="80.8" height="30.1"/>
<rect x="823.6" y="0" class="st0" width="80.8" height="30.1"/>
<rect x="829.2" y="93.1" class="st0" width="80.8" height="30.1"/>
<rect x="570.6" y="127.6" class="st0" width="80.8" height="30.1"/>
<rect x="545" y="251.3" class="st0" width="80.8" height="30.1"/>
<rect x="667" y="248.5" class="st0" width="80.8" height="30.1"/>
<polyline class="st1" points="823.6,14.9 770.1,65.6 829.2,108.1 "/>
<line class="st1" x1="689.3" y1="65.6" x2="611" y2="127.6"/>
<polyline class="st1" points="585.4,251.3 611,157.7 707.4,248.5 "/>
<rect x="144.3" y="82.3" class="st0" width="80.8" height="30.1"/>
<rect x="278.6" y="31" class="st0" width="80.8" height="30.1"/>
<rect x="284.2" y="124.1" class="st0" width="80.8" height="30.1"/>
<rect x="25.6" y="158.6" class="st0" width="80.8" height="30.1"/>
<rect y="282.3" class="st0" width="80.8" height="30.1"/>
<rect x="122" y="279.5" class="st0" width="80.8" height="30.1"/>
<polyline class="st1" points="278.6,45.9 225.1,96.6 284.2,139.1 "/>
<line class="st1" x1="144.3" y1="96.6" x2="66" y2="158.6"/>
<polyline class="st1" points="40.4,282.3 66,188.7 162.4,279.5 "/>
<line class="st1" x1="365" y1="139.1" x2="456.6" y2="139.1"/>
<rect x="415.5" y="123.7" class="st2" width="95" height="30"/>
<line class="st1" x1="510.6" y1="138.7" x2="570.6" y2="138.7"/>
<line class="st1" x1="415" y1="138.7" x2="359.4" y2="45.9"/>
<ellipse class="st3" cx="598.5" cy="707.3" rx="532.5" ry="91.1"/>
<g>
	<path class="st4" d="M487.7,314.8c0,0,42.5,55.2,43.8,75.1c1.3,19.9-19.1,62.6-19.1,62.6l-12.1-1.5c0,0,14.7-41.2,14.7-55.5
		c0-14.3-18.8-28.4-18.8-28.4C496.3,352.8,477.2,312.4,487.7,314.8z"/>
	<path class="st5" d="M483.9,311.2c0,0,26.3,22.4,41,49.2c14.7,26.7,14.7,26.7,14.7,26.7l-27.8,5.8l-15.4-25.8l-16.7-47.8
		L483.9,311.2z"/>
	<rect x="677.5" y="132.1" class="st6" width="264.4" height="603.8"/>
	<polygon class="st7" points="941.8,132.1 941.8,735.9 677.5,735.9 934.1,728.9 	"/>
	<rect x="713.1" y="169" class="st8" width="195.3" height="531.1"/>
	<rect x="713.1" y="233.3" class="st9" width="35.8" height="11.1"/>
	<rect x="871.6" y="233.3" class="st9" width="36.9" height="11.1"/>
	<rect x="871.6" y="310.3" class="st9" width="36.9" height="11.1"/>
	<rect x="871.6" y="387.3" class="st9" width="36.9" height="11.1"/>
	<rect x="871.6" y="464.3" class="st9" width="36.9" height="11.1"/>
	<rect x="872.7" y="541.3" class="st9" width="35.8" height="11.1"/>
	<rect x="872.7" y="618.4" class="st9" width="35.8" height="11.1"/>
	<rect x="713.1" y="310.3" class="st9" width="35.8" height="11.1"/>
	<rect x="713.1" y="387.3" class="st9" width="35.8" height="11.1"/>
	<rect x="713.1" y="464.3" class="st9" width="35.8" height="11.1"/>
	<rect x="713.1" y="541.3" class="st9" width="36.9" height="11.1"/>
	<rect x="713.1" y="618.4" class="st9" width="36.9" height="11.1"/>
	<rect x="713.1" y="657.3" class="st10" width="195.3" height="42.9"/>
	<g>
		<circle class="st9" cx="730.4" cy="670.6" r="6.2"/>
		<circle class="st9" cx="747.5" cy="670.6" r="6.2"/>
		<circle class="st9" cx="764.6" cy="670.6" r="6.2"/>
		<circle class="st9" cx="781.7" cy="670.6" r="6.2"/>
		<circle class="st9" cx="798.7" cy="670.6" r="6.2"/>
		<circle class="st9" cx="815.8" cy="670.6" r="6.2"/>
		<circle class="st9" cx="832.9" cy="670.6" r="6.2"/>
		<circle class="st9" cx="849.9" cy="670.6" r="6.2"/>
		<circle class="st9" cx="867" cy="670.6" r="6.2"/>
		<circle class="st9" cx="884.1" cy="670.6" r="6.2"/>
		<circle class="st9" cx="730.4" cy="686.4" r="6.2"/>
		<circle class="st9" cx="747.5" cy="686.4" r="6.2"/>
		<circle class="st9" cx="764.6" cy="686.4" r="6.2"/>
		<circle class="st9" cx="781.7" cy="686.4" r="6.2"/>
		<circle class="st9" cx="798.7" cy="686.4" r="6.2"/>
		<circle class="st9" cx="815.8" cy="686.4" r="6.2"/>
		<circle class="st9" cx="832.9" cy="686.4" r="6.2"/>
		<circle class="st9" cx="849.9" cy="686.4" r="6.2"/>
		<circle class="st9" cx="867" cy="686.4" r="6.2"/>
		<circle class="st9" cx="884.1" cy="686.4" r="6.2"/>
	</g>
	<g>
		<rect x="718.3" y="564.4" class="st11" width="185.4" height="27"/>
		<rect x="718.3" y="591.4" class="st11" width="185.4" height="27"/>
		<rect x="724.7" y="570.7" class="st9" width="59.5" height="11.9"/>
		<rect x="724.7" y="598.9" class="st9" width="59.5" height="11.9"/>
		<g>
			<g>
				<circle class="st9" cx="820.6" cy="595.5" r="1.9"/>
				<circle class="st9" cx="827.3" cy="595.5" r="1.9"/>
				<circle class="st9" cx="834.1" cy="595.5" r="1.9"/>
				<circle class="st9" cx="840.8" cy="595.5" r="1.9"/>
				<circle class="st9" cx="847.5" cy="595.5" r="1.9"/>
				<circle class="st9" cx="854.3" cy="595.5" r="1.9"/>
				<circle class="st9" cx="861" cy="595.5" r="1.9"/>
				<circle class="st9" cx="867.8" cy="595.5" r="1.9"/>
				<circle class="st9" cx="874.5" cy="595.5" r="1.9"/>
			</g>
			<g>
				<circle class="st9" cx="820.6" cy="600.8" r="1.9"/>
				<circle class="st9" cx="827.3" cy="600.8" r="1.9"/>
				<circle class="st9" cx="834.1" cy="600.8" r="1.9"/>
				<circle class="st9" cx="840.8" cy="600.8" r="1.9"/>
				<circle class="st9" cx="847.5" cy="600.8" r="1.9"/>
				<circle class="st9" cx="854.3" cy="600.8" r="1.9"/>
				<circle class="st9" cx="861" cy="600.8" r="1.9"/>
				<circle class="st9" cx="867.8" cy="600.8" r="1.9"/>
				<circle class="st9" cx="874.5" cy="600.8" r="1.9"/>
			</g>
			<g>
				<circle class="st9" cx="820.6" cy="606.1" r="1.9"/>
				<circle class="st9" cx="827.3" cy="606.1" r="1.9"/>
				<circle class="st9" cx="834.1" cy="606.1" r="1.9"/>
				<circle class="st9" cx="840.8" cy="606.1" r="1.9"/>
				<circle class="st9" cx="847.5" cy="606.1" r="1.9"/>
				<circle class="st9" cx="854.3" cy="606.1" r="1.9"/>
				<circle class="st9" cx="861" cy="606.1" r="1.9"/>
				<circle class="st9" cx="867.8" cy="606.1" r="1.9"/>
				<circle class="st9" cx="874.5" cy="606.1" r="1.9"/>
			</g>
			<g>
				<circle class="st9" cx="820.6" cy="611.3" r="1.9"/>
				<circle class="st9" cx="827.3" cy="611.3" r="1.9"/>
				<circle class="st9" cx="834.1" cy="611.3" r="1.9"/>
				<circle class="st9" cx="840.8" cy="611.3" r="1.9"/>
				<circle class="st9" cx="847.5" cy="611.3" r="1.9"/>
				<circle class="st9" cx="854.3" cy="611.3" r="1.9"/>
				<circle class="st9" cx="861" cy="611.3" r="1.9"/>
				<circle class="st9" cx="867.8" cy="611.3" r="1.9"/>
				<circle class="st9" cx="874.5" cy="611.3" r="1.9"/>
			</g>
		</g>
		<g>
			<g>
				<circle class="st9" cx="820.6" cy="570" r="1.9"/>
				<circle class="st9" cx="827.3" cy="570" r="1.9"/>
				<circle class="st9" cx="834.1" cy="570" r="1.9"/>
				<circle class="st9" cx="840.8" cy="570" r="1.9"/>
				<circle class="st9" cx="847.5" cy="570" r="1.9"/>
				<circle class="st9" cx="854.3" cy="570" r="1.9"/>
				<circle class="st9" cx="861" cy="570" r="1.9"/>
				<circle class="st9" cx="867.8" cy="570" r="1.9"/>
				<circle class="st9" cx="874.5" cy="570" r="1.9"/>
			</g>
			<g>
				<circle class="st9" cx="820.6" cy="575.2" r="1.9"/>
				<circle class="st9" cx="827.3" cy="575.2" r="1.9"/>
				<circle class="st9" cx="834.1" cy="575.2" r="1.9"/>
				<circle class="st9" cx="840.8" cy="575.2" r="1.9"/>
				<circle class="st9" cx="847.5" cy="575.2" r="1.9"/>
				<circle class="st9" cx="854.3" cy="575.2" r="1.9"/>
				<circle class="st9" cx="861" cy="575.2" r="1.9"/>
				<circle class="st9" cx="867.8" cy="575.2" r="1.9"/>
				<circle class="st9" cx="874.5" cy="575.2" r="1.9"/>
			</g>
			<g>
				<circle class="st9" cx="820.6" cy="580.5" r="1.9"/>
				<circle class="st9" cx="827.3" cy="580.5" r="1.9"/>
				<circle class="st9" cx="834.1" cy="580.5" r="1.9"/>
				<circle class="st9" cx="840.8" cy="580.5" r="1.9"/>
				<circle class="st9" cx="847.5" cy="580.5" r="1.9"/>
				<circle class="st9" cx="854.3" cy="580.5" r="1.9"/>
				<circle class="st9" cx="861" cy="580.5" r="1.9"/>
				<circle class="st9" cx="867.8" cy="580.5" r="1.9"/>
				<circle class="st9" cx="874.5" cy="580.5" r="1.9"/>
			</g>
			<g>
				<circle class="st9" cx="820.6" cy="585.8" r="1.9"/>
				<circle class="st9" cx="827.3" cy="585.8" r="1.9"/>
				<circle class="st9" cx="834.1" cy="585.8" r="1.9"/>
				<circle class="st9" cx="840.8" cy="585.8" r="1.9"/>
				<circle class="st9" cx="847.5" cy="585.8" r="1.9"/>
				<circle class="st9" cx="854.3" cy="585.8" r="1.9"/>
				<circle class="st9" cx="861" cy="585.8" r="1.9"/>
				<circle class="st9" cx="867.8" cy="585.8" r="1.9"/>
				<circle class="st9" cx="874.5" cy="585.8" r="1.9"/>
			</g>
		</g>
		<rect x="726.6" y="573.4" class="st12" width="38" height="5.3"/>
		<rect x="726.6" y="602.2" class="st12" width="38" height="5.3"/>
		<polygon class="st13" points="718.3,591.4 903.7,591.4 903.7,564.4 901.6,587.6 		"/>
	</g>
	<g>
		<rect x="718.3" y="487.4" class="st11" width="185.4" height="27"/>
		<rect x="718.3" y="514.4" class="st11" width="185.4" height="27"/>
		<rect x="724.7" y="493.7" class="st9" width="59.5" height="11.9"/>
		<rect x="724.7" y="521.9" class="st9" width="59.5" height="11.9"/>
		<g>
			<g>
				<circle class="st9" cx="820.6" cy="518.5" r="1.9"/>
				<circle class="st9" cx="827.3" cy="518.5" r="1.9"/>
				<circle class="st9" cx="834.1" cy="518.5" r="1.9"/>
				<circle class="st9" cx="840.8" cy="518.5" r="1.9"/>
				<circle class="st9" cx="847.5" cy="518.5" r="1.9"/>
				<circle class="st9" cx="854.3" cy="518.5" r="1.9"/>
				<circle class="st9" cx="861" cy="518.5" r="1.9"/>
				<circle class="st9" cx="867.8" cy="518.5" r="1.9"/>
				<circle class="st9" cx="874.5" cy="518.5" r="1.9"/>
			</g>
			<g>
				<circle class="st9" cx="820.6" cy="523.8" r="1.9"/>
				<circle class="st9" cx="827.3" cy="523.8" r="1.9"/>
				<circle class="st9" cx="834.1" cy="523.8" r="1.9"/>
				<circle class="st9" cx="840.8" cy="523.8" r="1.9"/>
				<circle class="st9" cx="847.5" cy="523.8" r="1.9"/>
				<circle class="st9" cx="854.3" cy="523.8" r="1.9"/>
				<circle class="st9" cx="861" cy="523.8" r="1.9"/>
				<circle class="st9" cx="867.8" cy="523.8" r="1.9"/>
				<circle class="st9" cx="874.5" cy="523.8" r="1.9"/>
			</g>
			<g>
				<circle class="st9" cx="820.6" cy="529" r="1.9"/>
				<circle class="st9" cx="827.3" cy="529" r="1.9"/>
				<circle class="st9" cx="834.1" cy="529" r="1.9"/>
				<circle class="st9" cx="840.8" cy="529" r="1.9"/>
				<circle class="st9" cx="847.5" cy="529" r="1.9"/>
				<circle class="st9" cx="854.3" cy="529" r="1.9"/>
				<circle class="st9" cx="861" cy="529" r="1.9"/>
				<circle class="st9" cx="867.8" cy="529" r="1.9"/>
				<circle class="st9" cx="874.5" cy="529" r="1.9"/>
			</g>
			<g>
				<circle class="st9" cx="820.6" cy="534.3" r="1.9"/>
				<circle class="st9" cx="827.3" cy="534.3" r="1.9"/>
				<circle class="st9" cx="834.1" cy="534.3" r="1.9"/>
				<circle class="st9" cx="840.8" cy="534.3" r="1.9"/>
				<circle class="st9" cx="847.5" cy="534.3" r="1.9"/>
				<circle class="st9" cx="854.3" cy="534.3" r="1.9"/>
				<circle class="st9" cx="861" cy="534.3" r="1.9"/>
				<circle class="st9" cx="867.8" cy="534.3" r="1.9"/>
				<circle class="st9" cx="874.5" cy="534.3" r="1.9"/>
			</g>
		</g>
		<g>
			<g>
				<circle class="st9" cx="820.6" cy="493" r="1.9"/>
				<circle class="st9" cx="827.3" cy="493" r="1.9"/>
				<circle class="st9" cx="834.1" cy="493" r="1.9"/>
				<circle class="st9" cx="840.8" cy="493" r="1.9"/>
				<circle class="st9" cx="847.5" cy="493" r="1.9"/>
				<circle class="st9" cx="854.3" cy="493" r="1.9"/>
				<circle class="st9" cx="861" cy="493" r="1.9"/>
				<circle class="st9" cx="867.8" cy="493" r="1.9"/>
				<circle class="st9" cx="874.5" cy="493" r="1.9"/>
			</g>
			<g>
				<circle class="st9" cx="820.6" cy="498.2" r="1.9"/>
				<circle class="st9" cx="827.3" cy="498.2" r="1.9"/>
				<circle class="st9" cx="834.1" cy="498.2" r="1.9"/>
				<circle class="st9" cx="840.8" cy="498.2" r="1.9"/>
				<circle class="st9" cx="847.5" cy="498.2" r="1.9"/>
				<circle class="st9" cx="854.3" cy="498.2" r="1.9"/>
				<circle class="st9" cx="861" cy="498.2" r="1.9"/>
				<circle class="st9" cx="867.8" cy="498.2" r="1.9"/>
				<circle class="st9" cx="874.5" cy="498.2" r="1.9"/>
			</g>
			<g>
				<circle class="st9" cx="820.6" cy="503.5" r="1.9"/>
				<circle class="st9" cx="827.3" cy="503.5" r="1.9"/>
				<circle class="st9" cx="834.1" cy="503.5" r="1.9"/>
				<circle class="st9" cx="840.8" cy="503.5" r="1.9"/>
				<circle class="st9" cx="847.5" cy="503.5" r="1.9"/>
				<circle class="st9" cx="854.3" cy="503.5" r="1.9"/>
				<circle class="st9" cx="861" cy="503.5" r="1.9"/>
				<circle class="st9" cx="867.8" cy="503.5" r="1.9"/>
				<circle class="st9" cx="874.5" cy="503.5" r="1.9"/>
			</g>
			<g>
				<circle class="st9" cx="820.6" cy="508.7" r="1.9"/>
				<circle class="st9" cx="827.3" cy="508.7" r="1.9"/>
				<circle class="st9" cx="834.1" cy="508.7" r="1.9"/>
				<circle class="st9" cx="840.8" cy="508.7" r="1.9"/>
				<circle class="st9" cx="847.5" cy="508.7" r="1.9"/>
				<circle class="st9" cx="854.3" cy="508.7" r="1.9"/>
				<circle class="st9" cx="861" cy="508.7" r="1.9"/>
				<circle class="st9" cx="867.8" cy="508.7" r="1.9"/>
				<circle class="st9" cx="874.5" cy="508.7" r="1.9"/>
			</g>
		</g>
		<rect x="726.6" y="496.3" class="st12" width="38" height="5.3"/>
		<rect x="726.6" y="525.2" class="st12" width="38" height="5.3"/>
		<polygon class="st13" points="718.3,514.4 903.7,514.4 903.7,487.4 901.6,510.6 		"/>
	</g>
	<g>
		<rect x="716.9" y="410.4" class="st11" width="185.4" height="27"/>
		<rect x="716.9" y="437.3" class="st11" width="185.4" height="27"/>
		<rect x="723.3" y="416.7" class="st9" width="59.5" height="11.9"/>
		<rect x="723.3" y="444.9" class="st9" width="59.5" height="11.9"/>
		<g>
			<g>
				<circle class="st9" cx="819.2" cy="441.5" r="1.9"/>
				<circle class="st9" cx="825.9" cy="441.5" r="1.9"/>
				<circle class="st9" cx="832.7" cy="441.5" r="1.9"/>
				<circle class="st9" cx="839.4" cy="441.5" r="1.9"/>
				<circle class="st9" cx="846.2" cy="441.5" r="1.9"/>
				<circle class="st9" cx="852.9" cy="441.5" r="1.9"/>
				<circle class="st9" cx="859.7" cy="441.5" r="1.9"/>
				<circle class="st9" cx="866.4" cy="441.5" r="1.9"/>
				<circle class="st9" cx="873.2" cy="441.5" r="1.9"/>
			</g>
			<g>
				<circle class="st9" cx="819.2" cy="446.8" r="1.9"/>
				<circle class="st9" cx="825.9" cy="446.8" r="1.9"/>
				<circle class="st9" cx="832.7" cy="446.8" r="1.9"/>
				<circle class="st9" cx="839.4" cy="446.8" r="1.9"/>
				<circle class="st9" cx="846.2" cy="446.8" r="1.9"/>
				<circle class="st9" cx="852.9" cy="446.8" r="1.9"/>
				<circle class="st9" cx="859.7" cy="446.8" r="1.9"/>
				<circle class="st9" cx="866.4" cy="446.8" r="1.9"/>
				<circle class="st9" cx="873.2" cy="446.8" r="1.9"/>
			</g>
			<g>
				<circle class="st9" cx="819.2" cy="452" r="1.9"/>
				<circle class="st9" cx="825.9" cy="452" r="1.9"/>
				<circle class="st9" cx="832.7" cy="452" r="1.9"/>
				<circle class="st9" cx="839.4" cy="452" r="1.9"/>
				<circle class="st9" cx="846.2" cy="452" r="1.9"/>
				<circle class="st9" cx="852.9" cy="452" r="1.9"/>
				<circle class="st9" cx="859.7" cy="452" r="1.9"/>
				<circle class="st9" cx="866.4" cy="452" r="1.9"/>
				<circle class="st9" cx="873.2" cy="452" r="1.9"/>
			</g>
			<g>
				<circle class="st9" cx="819.2" cy="457.3" r="1.9"/>
				<circle class="st9" cx="825.9" cy="457.3" r="1.9"/>
				<circle class="st9" cx="832.7" cy="457.3" r="1.9"/>
				<circle class="st9" cx="839.4" cy="457.3" r="1.9"/>
				<circle class="st9" cx="846.2" cy="457.3" r="1.9"/>
				<circle class="st9" cx="852.9" cy="457.3" r="1.9"/>
				<circle class="st9" cx="859.7" cy="457.3" r="1.9"/>
				<circle class="st9" cx="866.4" cy="457.3" r="1.9"/>
				<circle class="st9" cx="873.2" cy="457.3" r="1.9"/>
			</g>
		</g>
		<g>
			<g>
				<circle class="st9" cx="819.2" cy="416" r="1.9"/>
				<circle class="st9" cx="825.9" cy="416" r="1.9"/>
				<circle class="st9" cx="832.7" cy="416" r="1.9"/>
				<circle class="st9" cx="839.4" cy="416" r="1.9"/>
				<circle class="st9" cx="846.2" cy="416" r="1.9"/>
				<circle class="st9" cx="852.9" cy="416" r="1.9"/>
				<circle class="st9" cx="859.7" cy="416" r="1.9"/>
				<circle class="st9" cx="866.4" cy="416" r="1.9"/>
				<circle class="st9" cx="873.2" cy="416" r="1.9"/>
			</g>
			<g>
				<circle class="st9" cx="819.2" cy="421.2" r="1.9"/>
				<circle class="st9" cx="825.9" cy="421.2" r="1.9"/>
				<circle class="st9" cx="832.7" cy="421.2" r="1.9"/>
				<circle class="st9" cx="839.4" cy="421.2" r="1.9"/>
				<circle class="st9" cx="846.2" cy="421.2" r="1.9"/>
				<circle class="st9" cx="852.9" cy="421.2" r="1.9"/>
				<circle class="st9" cx="859.7" cy="421.2" r="1.9"/>
				<circle class="st9" cx="866.4" cy="421.2" r="1.9"/>
				<circle class="st9" cx="873.2" cy="421.2" r="1.9"/>
			</g>
			<g>
				<circle class="st9" cx="819.2" cy="426.5" r="1.9"/>
				<circle class="st9" cx="825.9" cy="426.5" r="1.9"/>
				<circle class="st9" cx="832.7" cy="426.5" r="1.9"/>
				<circle class="st9" cx="839.4" cy="426.5" r="1.9"/>
				<circle class="st9" cx="846.2" cy="426.5" r="1.9"/>
				<circle class="st9" cx="852.9" cy="426.5" r="1.9"/>
				<circle class="st9" cx="859.7" cy="426.5" r="1.9"/>
				<circle class="st9" cx="866.4" cy="426.5" r="1.9"/>
				<circle class="st9" cx="873.2" cy="426.5" r="1.9"/>
			</g>
			<g>
				<circle class="st9" cx="819.2" cy="431.7" r="1.9"/>
				<circle class="st9" cx="825.9" cy="431.7" r="1.9"/>
				<circle class="st9" cx="832.7" cy="431.7" r="1.9"/>
				<circle class="st9" cx="839.4" cy="431.7" r="1.9"/>
				<circle class="st9" cx="846.2" cy="431.7" r="1.9"/>
				<circle class="st9" cx="852.9" cy="431.7" r="1.9"/>
				<circle class="st9" cx="859.7" cy="431.7" r="1.9"/>
				<circle class="st9" cx="866.4" cy="431.7" r="1.9"/>
				<circle class="st9" cx="873.2" cy="431.7" r="1.9"/>
			</g>
		</g>
		<rect x="725.2" y="419.3" class="st12" width="38" height="5.3"/>
		<rect x="725.2" y="448.2" class="st12" width="38" height="5.3"/>
		<polygon class="st13" points="716.9,437.3 902.3,437.3 902.3,410.4 900.2,433.6 		"/>
	</g>
	<g>
		<rect x="716.9" y="256.3" class="st11" width="185.4" height="27"/>
		<rect x="716.9" y="283.3" class="st11" width="185.4" height="27"/>
		<rect x="723.3" y="262.7" class="st9" width="59.5" height="11.9"/>
		<rect x="723.3" y="290.9" class="st9" width="59.5" height="11.9"/>
		<g>
			<g>
				<circle class="st9" cx="819.2" cy="287.5" r="1.9"/>
				<circle class="st9" cx="825.9" cy="287.5" r="1.9"/>
				<circle class="st9" cx="832.7" cy="287.5" r="1.9"/>
				<circle class="st9" cx="839.4" cy="287.5" r="1.9"/>
				<circle class="st9" cx="846.2" cy="287.5" r="1.9"/>
				<circle class="st9" cx="852.9" cy="287.5" r="1.9"/>
				<circle class="st9" cx="859.7" cy="287.5" r="1.9"/>
				<circle class="st9" cx="866.4" cy="287.5" r="1.9"/>
				<circle class="st9" cx="873.2" cy="287.5" r="1.9"/>
			</g>
			<g>
				<circle class="st9" cx="819.2" cy="292.8" r="1.9"/>
				<circle class="st9" cx="825.9" cy="292.8" r="1.9"/>
				<circle class="st9" cx="832.7" cy="292.8" r="1.9"/>
				<circle class="st9" cx="839.4" cy="292.8" r="1.9"/>
				<circle class="st9" cx="846.2" cy="292.8" r="1.9"/>
				<circle class="st9" cx="852.9" cy="292.8" r="1.9"/>
				<circle class="st9" cx="859.7" cy="292.8" r="1.9"/>
				<circle class="st9" cx="866.4" cy="292.8" r="1.9"/>
				<circle class="st9" cx="873.2" cy="292.8" r="1.9"/>
			</g>
			<g>
				<circle class="st9" cx="819.2" cy="298" r="1.9"/>
				<circle class="st9" cx="825.9" cy="298" r="1.9"/>
				<circle class="st9" cx="832.7" cy="298" r="1.9"/>
				<circle class="st9" cx="839.4" cy="298" r="1.9"/>
				<circle class="st9" cx="846.2" cy="298" r="1.9"/>
				<circle class="st9" cx="852.9" cy="298" r="1.9"/>
				<circle class="st9" cx="859.7" cy="298" r="1.9"/>
				<circle class="st9" cx="866.4" cy="298" r="1.9"/>
				<circle class="st9" cx="873.2" cy="298" r="1.9"/>
			</g>
			<g>
				<circle class="st9" cx="819.2" cy="303.3" r="1.9"/>
				<circle class="st9" cx="825.9" cy="303.3" r="1.9"/>
				<circle class="st9" cx="832.7" cy="303.3" r="1.9"/>
				<circle class="st9" cx="839.4" cy="303.3" r="1.9"/>
				<circle class="st9" cx="846.2" cy="303.3" r="1.9"/>
				<circle class="st9" cx="852.9" cy="303.3" r="1.9"/>
				<circle class="st9" cx="859.7" cy="303.3" r="1.9"/>
				<circle class="st9" cx="866.4" cy="303.3" r="1.9"/>
				<circle class="st9" cx="873.2" cy="303.3" r="1.9"/>
			</g>
		</g>
		<g>
			<g>
				<circle class="st9" cx="819.2" cy="261.9" r="1.9"/>
				<circle class="st9" cx="825.9" cy="261.9" r="1.9"/>
				<circle class="st9" cx="832.7" cy="261.9" r="1.9"/>
				<circle class="st9" cx="839.4" cy="261.9" r="1.9"/>
				<circle class="st9" cx="846.2" cy="261.9" r="1.9"/>
				<circle class="st9" cx="852.9" cy="261.9" r="1.9"/>
				<circle class="st9" cx="859.7" cy="261.9" r="1.9"/>
				<circle class="st9" cx="866.4" cy="261.9" r="1.9"/>
				<circle class="st9" cx="873.2" cy="261.9" r="1.9"/>
			</g>
			<g>
				<circle class="st9" cx="819.2" cy="267.2" r="1.9"/>
				<circle class="st9" cx="825.9" cy="267.2" r="1.9"/>
				<circle class="st9" cx="832.7" cy="267.2" r="1.9"/>
				<circle class="st9" cx="839.4" cy="267.2" r="1.9"/>
				<circle class="st9" cx="846.2" cy="267.2" r="1.9"/>
				<circle class="st9" cx="852.9" cy="267.2" r="1.9"/>
				<circle class="st9" cx="859.7" cy="267.2" r="1.9"/>
				<circle class="st9" cx="866.4" cy="267.2" r="1.9"/>
				<circle class="st9" cx="873.2" cy="267.2" r="1.9"/>
			</g>
			<g>
				<circle class="st9" cx="819.2" cy="272.5" r="1.9"/>
				<circle class="st9" cx="825.9" cy="272.5" r="1.9"/>
				<circle class="st9" cx="832.7" cy="272.5" r="1.9"/>
				<circle class="st9" cx="839.4" cy="272.5" r="1.9"/>
				<circle class="st9" cx="846.2" cy="272.5" r="1.9"/>
				<circle class="st9" cx="852.9" cy="272.5" r="1.9"/>
				<circle class="st9" cx="859.7" cy="272.5" r="1.9"/>
				<circle class="st9" cx="866.4" cy="272.5" r="1.9"/>
				<circle class="st9" cx="873.2" cy="272.5" r="1.9"/>
			</g>
			<g>
				<circle class="st9" cx="819.2" cy="277.7" r="1.9"/>
				<circle class="st9" cx="825.9" cy="277.7" r="1.9"/>
				<circle class="st9" cx="832.7" cy="277.7" r="1.9"/>
				<circle class="st9" cx="839.4" cy="277.7" r="1.9"/>
				<circle class="st9" cx="846.2" cy="277.7" r="1.9"/>
				<circle class="st9" cx="852.9" cy="277.7" r="1.9"/>
				<circle class="st9" cx="859.7" cy="277.7" r="1.9"/>
				<circle class="st9" cx="866.4" cy="277.7" r="1.9"/>
				<circle class="st9" cx="873.2" cy="277.7" r="1.9"/>
			</g>
		</g>
		<rect x="725.2" y="265.3" class="st12" width="38" height="5.3"/>
		<rect x="725.2" y="294.2" class="st12" width="38" height="5.3"/>
		<polygon class="st13" points="716.9,283.3 902.3,283.3 902.3,256.3 900.2,279.6 		"/>
	</g>
	<g>
		<rect x="716.9" y="179.3" class="st11" width="185.4" height="27"/>
		<rect x="716.9" y="206.3" class="st11" width="185.4" height="27"/>
		<rect x="723.3" y="185.7" class="st9" width="59.5" height="11.9"/>
		<rect x="723.3" y="213.9" class="st9" width="59.5" height="11.9"/>
		<g>
			<g>
				<circle class="st9" cx="819.2" cy="210.5" r="1.9"/>
				<circle class="st9" cx="825.9" cy="210.5" r="1.9"/>
				<circle class="st9" cx="832.7" cy="210.5" r="1.9"/>
				<circle class="st9" cx="839.4" cy="210.5" r="1.9"/>
				<circle class="st9" cx="846.2" cy="210.5" r="1.9"/>
				<circle class="st9" cx="852.9" cy="210.5" r="1.9"/>
				<circle class="st9" cx="859.7" cy="210.5" r="1.9"/>
				<circle class="st9" cx="866.4" cy="210.5" r="1.9"/>
				<circle class="st9" cx="873.2" cy="210.5" r="1.9"/>
			</g>
			<g>
				<circle class="st9" cx="819.2" cy="215.7" r="1.9"/>
				<circle class="st9" cx="825.9" cy="215.7" r="1.9"/>
				<circle class="st9" cx="832.7" cy="215.7" r="1.9"/>
				<circle class="st9" cx="839.4" cy="215.7" r="1.9"/>
				<circle class="st9" cx="846.2" cy="215.7" r="1.9"/>
				<circle class="st9" cx="852.9" cy="215.7" r="1.9"/>
				<circle class="st9" cx="859.7" cy="215.7" r="1.9"/>
				<circle class="st9" cx="866.4" cy="215.7" r="1.9"/>
				<circle class="st9" cx="873.2" cy="215.7" r="1.9"/>
			</g>
			<g>
				<circle class="st9" cx="819.2" cy="221" r="1.9"/>
				<circle class="st9" cx="825.9" cy="221" r="1.9"/>
				<circle class="st9" cx="832.7" cy="221" r="1.9"/>
				<circle class="st9" cx="839.4" cy="221" r="1.9"/>
				<circle class="st9" cx="846.2" cy="221" r="1.9"/>
				<circle class="st9" cx="852.9" cy="221" r="1.9"/>
				<circle class="st9" cx="859.7" cy="221" r="1.9"/>
				<circle class="st9" cx="866.4" cy="221" r="1.9"/>
				<circle class="st9" cx="873.2" cy="221" r="1.9"/>
			</g>
			<g>
				<circle class="st9" cx="819.2" cy="226.3" r="1.9"/>
				<circle class="st9" cx="825.9" cy="226.3" r="1.9"/>
				<circle class="st9" cx="832.7" cy="226.3" r="1.9"/>
				<circle class="st9" cx="839.4" cy="226.3" r="1.9"/>
				<circle class="st9" cx="846.2" cy="226.3" r="1.9"/>
				<circle class="st9" cx="852.9" cy="226.3" r="1.9"/>
				<circle class="st9" cx="859.7" cy="226.3" r="1.9"/>
				<circle class="st9" cx="866.4" cy="226.3" r="1.9"/>
				<circle class="st9" cx="873.2" cy="226.3" r="1.9"/>
			</g>
		</g>
		<g>
			<g>
				<circle class="st9" cx="819.2" cy="184.9" r="1.9"/>
				<circle class="st9" cx="825.9" cy="184.9" r="1.9"/>
				<circle class="st9" cx="832.7" cy="184.9" r="1.9"/>
				<circle class="st9" cx="839.4" cy="184.9" r="1.9"/>
				<circle class="st9" cx="846.2" cy="184.9" r="1.9"/>
				<circle class="st9" cx="852.9" cy="184.9" r="1.9"/>
				<circle class="st9" cx="859.7" cy="184.9" r="1.9"/>
				<circle class="st9" cx="866.4" cy="184.9" r="1.9"/>
				<circle class="st9" cx="873.2" cy="184.9" r="1.9"/>
			</g>
			<g>
				<circle class="st9" cx="819.2" cy="190.2" r="1.9"/>
				<circle class="st9" cx="825.9" cy="190.2" r="1.9"/>
				<circle class="st9" cx="832.7" cy="190.2" r="1.9"/>
				<circle class="st9" cx="839.4" cy="190.2" r="1.9"/>
				<circle class="st9" cx="846.2" cy="190.2" r="1.9"/>
				<circle class="st9" cx="852.9" cy="190.2" r="1.9"/>
				<circle class="st9" cx="859.7" cy="190.2" r="1.9"/>
				<circle class="st9" cx="866.4" cy="190.2" r="1.9"/>
				<circle class="st9" cx="873.2" cy="190.2" r="1.9"/>
			</g>
			<g>
				<circle class="st9" cx="819.2" cy="195.4" r="1.9"/>
				<circle class="st9" cx="825.9" cy="195.4" r="1.9"/>
				<circle class="st9" cx="832.7" cy="195.4" r="1.9"/>
				<circle class="st9" cx="839.4" cy="195.4" r="1.9"/>
				<circle class="st9" cx="846.2" cy="195.4" r="1.9"/>
				<circle class="st9" cx="852.9" cy="195.4" r="1.9"/>
				<circle class="st9" cx="859.7" cy="195.4" r="1.9"/>
				<circle class="st9" cx="866.4" cy="195.4" r="1.9"/>
				<circle class="st9" cx="873.2" cy="195.4" r="1.9"/>
			</g>
			<g>
				<circle class="st9" cx="819.2" cy="200.7" r="1.9"/>
				<circle class="st9" cx="825.9" cy="200.7" r="1.9"/>
				<circle class="st9" cx="832.7" cy="200.7" r="1.9"/>
				<circle class="st9" cx="839.4" cy="200.7" r="1.9"/>
				<circle class="st9" cx="846.2" cy="200.7" r="1.9"/>
				<circle class="st9" cx="852.9" cy="200.7" r="1.9"/>
				<circle class="st9" cx="859.7" cy="200.7" r="1.9"/>
				<circle class="st9" cx="866.4" cy="200.7" r="1.9"/>
				<circle class="st9" cx="873.2" cy="200.7" r="1.9"/>
			</g>
		</g>
		<rect x="725.2" y="188.3" class="st12" width="38" height="5.3"/>
		<rect x="725.2" y="217.2" class="st12" width="38" height="5.3"/>
		<polygon class="st13" points="716.9,206.3 902.3,206.3 902.3,179.3 900.2,202.6 		"/>
	</g>
	<g>
		<path class="st14" d="M466.6,514.1c0,0,24.5,186,30.2,205.8l0.2,12.6l41.6-0.6c0,0-2.6-4.1-7.3-4.1c-4.7,0.1-16.7-4.3-20-7.4
			c-3.3-3.1-1.9-260.7-1.9-260.7l-51.7,0.8L466.6,514.1z"/>
		<path class="st15" d="M490.2,476.2l-5.5,30.2c0,0-45.5,164-42.6,221c0,0,4.1,6.7,18.5,10.5c0.8,0.2,1.5,2.8,1.5,2.8l-37.2,0.6
			l1.9-11.5c0,0,4.9-192.8,4.6-215.4C431,491.8,432,460,432,460h60.3L490.2,476.2z"/>
		<path class="st16" d="M510.4,419.2c-0.8-52.8-14.9-101.5-26.6-108.1c0,0-11.7-2.5-18.6-2.7c-10.3-0.2-26.1,5.2-34.2,34.5
			c-5.1,18.4-1.9,62.7-0.7,101.4c0.5,17.1-1.8,33.2-1.3,45.3c29.1-0.4,55.7-0.8,84-1.3C513.3,479.2,510.7,435.8,510.4,419.2z"/>
		<path class="st4" d="M467.6,273.3c0,0-7,25.4-5.8,37.8c0,0,15.9,15.4,22,10.9l0.3-31.6L467.6,273.3z"/>
		<path class="st17" d="M467.6,273.3l16.5,17.2l-0.2,16c-7.5-0.2-14.7-11.5-15.8-25c-0.2-2.3-0.6-4.4-1.1-6.4
			C467.4,273.9,467.6,273.3,467.6,273.3z"/>
		<path class="st4" d="M497,249.2c0.2,0.3,0.5,0.7,0.8,1.4c1.2,2.9,2.3,9.6,0.5,17.3c-2.2,9.4-5.9,29.1-13.1,29.2
			c-7.2,0.1-16.9-9.5-17.8-21.1c-1-11.6-6-17.3-1.8-26.3C469.6,240.7,497,249.2,497,249.2z"/>
		<path class="st17" d="M465.5,249.7c4.1-9,31.5-0.5,31.5-0.5c0.2,0.3,0.5,0.7,0.8,1.4c1.2,2.9,2.1,10.4,0.3,18.1
			c-0.3,1.2-6.5-3.3-8.7-8.6c-0.4-0.4-0.6-4-6.9-6.4c-1.2,3.1-3.5,1.1-6.8,8c0,13.8-8.3,15.6-8.4,14.3
			C466.4,264.4,461.3,258.7,465.5,249.7z"/>
		<path class="st18" d="M473.4,262.6c0,0,2.4-5.4,4.9-8.2c2.5-2.7,1.7-5,1.7-5s9.1,1.5,11.8,8.1c2.7,6.6,6,16.3,15.9,11.8
			c9.9-4.5,7.9-18.4,5.6-18.3c-2.3,0-4.5-2-4.5-2s-8.5-12.5-13-12.4c-4.5,0.1-0.6-4.3-8.2-5.5c-7.6-1.1-13.5,6.2-13.5,6.2
			s-3.3-3.9-9.1,0.1c-5.7,4-2.8,19.3-0.7,24.7c2.1,5.4,2.4,14.2,2.4,14.2S473.6,277.8,473.4,262.6z"/>
		<path class="st4" d="M469.3,260.1c0.8-2.8,4.2-3.2,5.6-0.7c1.2,2.1,1.9,4.7,0.1,6.7c-3.6,4-7-0.3-5.9-5.1
			C469.2,260.7,469.3,260.4,469.3,260.1z"/>
		<path class="st17" d="M475.7,263.3c-0.1-1.1-1.3-4.4-3-3.3c-1.7,1.2-3,5.3-0.2,6.1C475.3,266.9,475.8,264.4,475.7,263.3z"/>
		<g>
			<path class="st19" d="M488.4,282.8l4.1-0.1l-0.2-10.6c0-0.2-0.2-0.4-0.4-0.4c-0.2,0-0.4,0.2-0.4,0.4l0.1,9.8l-3.3,0
				c-0.2,0-0.4,0.2-0.4,0.4C488,282.6,488.2,282.8,488.4,282.8z"/>
		</g>
		
			<ellipse transform="matrix(0.9999 -1.529145e-02 1.529145e-02 0.9999 -4.0842 7.4795)" class="st19" cx="487.1" cy="270.8" rx="1.7" ry="2.2"/>
		
			<ellipse transform="matrix(0.9999 -1.502743e-02 1.502743e-02 0.9999 -4.031 7.4745)" class="st19" cx="495.3" cy="272" rx="1.4" ry="2"/>
		<g>
			<path class="st19" d="M485.8,290.7c0.8,0,1.3-0.2,1.4-0.2c0.2-0.1,0.3-0.3,0.2-0.5c-0.1-0.2-0.3-0.3-0.5-0.3
				c-0.2,0.1-3.7,1.1-6.7-2.9c-0.1-0.2-0.3-0.2-0.5-0.1c-0.2,0.1-0.2,0.4-0.1,0.5C481.8,290.3,484.3,290.8,485.8,290.7z"/>
		</g>
		<path class="st19" d="M490,265.4c0,0-1.9-2-4.3-2c-2.3,0-4.1,3-4.1,3s1.7-2.4,3.7-2c2,0.4,4.6,2.4,4.6,2.4L490,265.4z"/>
		<path class="st4" d="M448,376.4C448,376.4,448,376.4,448,376.4C448.4,376.4,448.3,376.4,448,376.4z"/>
		<g>
			<path class="st20" d="M442.2,281.1c-0.5,0-0.9-0.3-1-0.8c-4.2-16-0.7-29.8,3.1-38.6c4.1-9.5,9.1-15.1,9.3-15.3
				c0.4-0.4,1-0.5,1.5-0.1c0.4,0.4,0.5,1,0.1,1.5c-0.2,0.2-19.7,22.4-11.9,52c0.1,0.6-0.2,1.1-0.7,1.3
				C442.3,281,442.3,281.1,442.2,281.1z"/>
		</g>
	</g>
	<rect x="908.5" y="168.1" class="st21" width="148.9" height="531.1"/>
	<g class="st22">
		<polygon class="st23" points="1017.2,168.1 908.5,301.2 908.5,327.5 1038.7,168.1 		"/>
		<polygon class="st23" points="1057.3,200.6 908.5,395.4 908.5,422.8 1057.3,228.1 		"/>
		<polygon class="st23" points="1057.3,323.7 908.5,501.8 908.5,527.8 1057.3,349.7 		"/>
	</g>
	<polygon class="st6" points="585.8,472 585.8,581.4 486.8,581.4 486.8,472 476.6,472 476.6,745.1 486.8,745.1 486.8,589 585.8,589 
		585.8,745.1 596.1,745.1 596.1,472 	"/>
	<g>
		<rect x="476.6" y="472" class="st24" width="10.3" height="19.1"/>
		<rect x="585.8" y="472" class="st24" width="10.3" height="19.1"/>
	</g>
	<path class="st4" d="M424.8,373.8c0,0-3.9,47.3,0.5,52.3c4.4,5,51.3,24.9,51.3,24.9l19.2,5.3l18.3-2.5c0,0-10.6-11.9-15.2-11.9
		c-4.1,0-6.7,2.3-12.1,0.6c-5.4-1.8-39.5-20.8-39.5-26.9c0-6.1,1-57.6,1-71.6s3-29.8-4.6-25.9C431.8,324.1,426.7,349.7,424.8,373.8z
		"/>
	<rect x="467.9" y="458" class="st6" width="135.4" height="21.6"/>
	<path class="st25" d="M451.8,408.1c-0.3-69.8,0.1-90.1-3.8-92.2c2.3,0.9,3.5,8,4,10.8C455.2,348.5,454,386.7,451.8,408.1z"/>
	<path class="st4" d="M500.4,451H514c0,0,17.4-36.8,21.6-58.1c-5-2.5-13.3-4.4-20.4,2.7C515.1,410,500.4,451,500.4,451z"/>
	<polygon class="st26" points="521,380.2 511.8,451 597.6,451 613.5,380.2 	"/>
	<polygon class="st27" points="521,380.2 511.8,451 597.6,451 515.2,446.8 	"/>
	<path class="st28" d="M485.5,440.7c-5.3-2.5-36.7-19.4-37.6-25.1c0-0.3-0.2-4.5-0.1-4.2c-0.1-1.9-0.1-3.8-0.2-5.6
		c-0.3,3.4-0.3,4.8-0.6,8.4c0.1,1.8-1.7,3.2,8.5,11.1c8.8,6.8,21.9,14.2,29.1,17.5c6.7,3.1,10.2,0.1,14.2,0c4,0.1,12.5,8.3,15.3,11
		C496.7,431.8,496.7,446.4,485.5,440.7z"/>
	<rect x="469.1" y="451" class="st29" width="128.5" height="8.2"/>
	<path class="st30" d="M451.8,408.1c0,0,3.9-89.6-3.8-92.2c-7.7-2.6-15.3,13.4-19.7,26.4c-4.3,13-8.7,73.3-8.7,73.3L451.8,408.1z"/>
	<g>
		<path class="st31" d="M627.4,457.4c-11.8,0-36.3-0.8-36.5-0.8l0.1-2.4c0.2,0,24.7,0.8,36.4,0.8c6.9,0,42.2-1.6,55.5-33.5
			c12.6-30.4,111.5-45.2,115.7-45.8l0.3,2.4c-1,0.1-101.7,15.2-113.8,44.3C671.3,455.7,634.6,457.4,627.4,457.4z"/>
	</g>
	<g>
		<path class="st31" d="M621.3,575.3c-23.1-4-36.2-22.2-32.5-45.3c0.3-1.6,1.3-7.5,3.3-14.6c-17.2-16.8-19.9-59.4-20-61.5l2.4-0.1
			c0,0.5,2.6,42.2,18.4,59c4.2-13.6,12.1-30.5,25.5-32.4c15.8-2.3,16.8,18.6,7.2,31.8c-8.6,11.9-22.1,12.6-31.5,4.9
			c-1.3,4.8-2.3,9.3-2.9,13.3c-3.5,22,8.5,38.7,30.6,42.6c20.1,3.5,43.2,0.5,60.3-7.9c17-8.3,27.4-24.4,37.7-40.1
			c25.6-38.8,66.4-106.9,90-147.1l2.1,1.2c-98.9,168.5-110.3,179.2-128.8,188.2C665.8,575.6,642.2,578.9,621.3,575.3z M594.8,514.6
			c8.6,7.6,20.9,7.2,28.9-3.8c5.6-7.8,7.4-18.7,3.9-24.4C623,478.9,605.3,479.5,594.8,514.6z"/>
	</g>
	<g>
		<path class="st32" d="M660.2,522c-49.1,0-78.5-64.5-78.8-65.2l2.1-1c0.3,0.7,31.6,69.3,82.8,63.5
			c51.5-5.9,119.7-136.3,120.4-137.6l2.1,1.1c-2.8,5.4-69.5,132.8-122.2,138.9C664.5,521.8,662.3,522,660.2,522z"/>
	</g>
	<g>
		<rect x="716.9" y="333.3" class="st11" width="185.4" height="27"/>
		<rect x="716.9" y="360.3" class="st11" width="185.4" height="27"/>
		<rect x="723.3" y="339.7" class="st9" width="59.5" height="11.9"/>
		<rect x="723.3" y="367.9" class="st9" width="59.5" height="11.9"/>
		<g>
			<g>
				<circle class="st9" cx="819.2" cy="364.5" r="1.9"/>
				<circle class="st9" cx="825.9" cy="364.5" r="1.9"/>
				<circle class="st9" cx="832.7" cy="364.5" r="1.9"/>
				<circle class="st9" cx="839.4" cy="364.5" r="1.9"/>
				<circle class="st9" cx="846.2" cy="364.5" r="1.9"/>
				<circle class="st9" cx="852.9" cy="364.5" r="1.9"/>
				<circle class="st9" cx="859.7" cy="364.5" r="1.9"/>
				<circle class="st9" cx="866.4" cy="364.5" r="1.9"/>
				<circle class="st9" cx="873.2" cy="364.5" r="1.9"/>
			</g>
			<g>
				<circle class="st9" cx="819.2" cy="369.8" r="1.9"/>
				<circle class="st9" cx="825.9" cy="369.8" r="1.9"/>
				<circle class="st9" cx="832.7" cy="369.8" r="1.9"/>
				<circle class="st9" cx="839.4" cy="369.8" r="1.9"/>
				<circle class="st9" cx="846.2" cy="369.8" r="1.9"/>
				<circle class="st9" cx="852.9" cy="369.8" r="1.9"/>
				<circle class="st9" cx="859.7" cy="369.8" r="1.9"/>
				<circle class="st9" cx="866.4" cy="369.8" r="1.9"/>
				<circle class="st9" cx="873.2" cy="369.8" r="1.9"/>
			</g>
			<g>
				<circle class="st9" cx="819.2" cy="375" r="1.9"/>
				<circle class="st9" cx="825.9" cy="375" r="1.9"/>
				<circle class="st9" cx="832.7" cy="375" r="1.9"/>
				<circle class="st9" cx="839.4" cy="375" r="1.9"/>
				<circle class="st9" cx="846.2" cy="375" r="1.9"/>
				<circle class="st9" cx="852.9" cy="375" r="1.9"/>
				<circle class="st9" cx="859.7" cy="375" r="1.9"/>
				<circle class="st9" cx="866.4" cy="375" r="1.9"/>
				<circle class="st9" cx="873.2" cy="375" r="1.9"/>
			</g>
			<g>
				<circle class="st9" cx="819.2" cy="380.3" r="1.9"/>
				<circle class="st9" cx="825.9" cy="380.3" r="1.9"/>
				<circle class="st9" cx="832.7" cy="380.3" r="1.9"/>
				<circle class="st9" cx="839.4" cy="380.3" r="1.9"/>
				<circle class="st9" cx="846.2" cy="380.3" r="1.9"/>
				<circle class="st9" cx="852.9" cy="380.3" r="1.9"/>
				<circle class="st9" cx="859.7" cy="380.3" r="1.9"/>
				<circle class="st9" cx="866.4" cy="380.3" r="1.9"/>
				<circle class="st9" cx="873.2" cy="380.3" r="1.9"/>
			</g>
		</g>
		<g>
			<g>
				<circle class="st9" cx="819.2" cy="338.9" r="1.9"/>
				<circle class="st9" cx="825.9" cy="338.9" r="1.9"/>
				<circle class="st9" cx="832.7" cy="338.9" r="1.9"/>
				<circle class="st9" cx="839.4" cy="338.9" r="1.9"/>
				<circle class="st9" cx="846.2" cy="338.9" r="1.9"/>
				<circle class="st9" cx="852.9" cy="338.9" r="1.9"/>
				<circle class="st9" cx="859.7" cy="338.9" r="1.9"/>
				<circle class="st9" cx="866.4" cy="338.9" r="1.9"/>
				<circle class="st9" cx="873.2" cy="338.9" r="1.9"/>
			</g>
			<g>
				<circle class="st9" cx="819.2" cy="344.2" r="1.9"/>
				<circle class="st9" cx="825.9" cy="344.2" r="1.9"/>
				<circle class="st9" cx="832.7" cy="344.2" r="1.9"/>
				<circle class="st9" cx="839.4" cy="344.2" r="1.9"/>
				<circle class="st9" cx="846.2" cy="344.2" r="1.9"/>
				<circle class="st9" cx="852.9" cy="344.2" r="1.9"/>
				<circle class="st9" cx="859.7" cy="344.2" r="1.9"/>
				<circle class="st9" cx="866.4" cy="344.2" r="1.9"/>
				<circle class="st9" cx="873.2" cy="344.2" r="1.9"/>
			</g>
			<g>
				<circle class="st9" cx="819.2" cy="349.5" r="1.9"/>
				<circle class="st9" cx="825.9" cy="349.5" r="1.9"/>
				<circle class="st9" cx="832.7" cy="349.5" r="1.9"/>
				<circle class="st9" cx="839.4" cy="349.5" r="1.9"/>
				<circle class="st9" cx="846.2" cy="349.5" r="1.9"/>
				<circle class="st9" cx="852.9" cy="349.5" r="1.9"/>
				<circle class="st9" cx="859.7" cy="349.5" r="1.9"/>
				<circle class="st9" cx="866.4" cy="349.5" r="1.9"/>
				<circle class="st9" cx="873.2" cy="349.5" r="1.9"/>
			</g>
			<g>
				<circle class="st9" cx="819.2" cy="354.7" r="1.9"/>
				<circle class="st9" cx="825.9" cy="354.7" r="1.9"/>
				<circle class="st9" cx="832.7" cy="354.7" r="1.9"/>
				<circle class="st9" cx="839.4" cy="354.7" r="1.9"/>
				<circle class="st9" cx="846.2" cy="354.7" r="1.9"/>
				<circle class="st9" cx="852.9" cy="354.7" r="1.9"/>
				<circle class="st9" cx="859.7" cy="354.7" r="1.9"/>
				<circle class="st9" cx="866.4" cy="354.7" r="1.9"/>
				<circle class="st9" cx="873.2" cy="354.7" r="1.9"/>
			</g>
		</g>
		<rect x="725.2" y="342.3" class="st12" width="38" height="5.3"/>
		<rect x="725.2" y="371.2" class="st12" width="38" height="5.3"/>
		<polygon class="st13" points="716.9,360.3 902.3,360.3 902.3,333.3 900.2,356.6 		"/>
	</g>
	<rect x="570.9" y="453.5" width="5" height="5"/>
	<rect x="580.3" y="453.5" width="5" height="5"/>
	<rect x="587.1" y="453.5" width="5" height="5"/>
	<polygon class="st23" points="1057.3,168.1 1057.3,699.2 908.5,699.2 1047.2,686.4 	"/>
</g>
<polygon class="st33" points="263.6,482 263.6,482.4 180.1,482.4 180.1,722.8 197.3,722.8 197.3,500.3 260.7,500.3 260.7,722.8 
	276.3,722.8 276.3,500 350.8,500 359.3,482 "/>
<polygon class="st24" points="263.6,482.4 180.1,482.4 180.1,489.1 355.9,489.1 359.3,482 263.6,482 "/>
<rect x="172.4" y="718.5" class="st6" width="110.3" height="4.5"/>
<rect x="230.2" y="384.2" class="st26" width="104.5" height="90.7"/>
<rect x="236.6" y="387.2" width="93.2" height="84.7"/>
<g>
	<path class="st31" d="M278,437c-7.9-3.5-17-32.3-17.3-33.5l1.4-0.4c0.1,0.3,9.2,29.4,16.5,32.6c7.3,3.2,20.2-4.8,20.4-4.8l0.8,1.3
		C294.2,435.5,284.2,439.7,278,437z"/>
</g>
<g>
	<path class="st32" d="M278.2,450.2c-12.3-1.7-22.7-29.4-23.2-30.6l1.4-0.5c0.1,0.3,10.5,28,22,29.6c11.4,1.6,24-18.1,24.2-18.3
		l1.3,0.8C298.8,439.3,287.9,451.5,278.2,450.2z"/>
</g>
<g>
	<path class="st31" d="M256.9,416l1.5-0.3c2.8,13,12.8,42.8,25.3,38.2c10.8-3.9,21.6-28.5,21.7-28.8l1.4,0.6
		c-0.5,1-11.1,25.4-22.6,29.6C270.3,460.4,260,430.3,256.9,416z"/>
</g>
<g>
	<path class="st32" d="M279.5,464.7c-11.7,0-23.9-22.9-24.4-23.9l1.3-0.7c0.1,0.2,12.2,23.1,23.1,23.1c10.9,0,24.6-21.8,25.9-30
		l1.5,0.2C305.5,442.2,291.3,464.7,279.5,464.7z"/>
</g>
<g>
	<rect x="236.6" y="387.2" class="st34" width="26.7" height="84.7"/>
	<rect x="238.7" y="391.1" width="22.7" height="1.1"/>
	<rect x="238.7" y="394.1" width="22.7" height="1.1"/>
	<rect x="238.7" y="397.1" width="22.7" height="1.1"/>
	<rect x="238.7" y="400.1" width="22.7" height="1.1"/>
	<rect x="238.7" y="403" width="22.7" height="1.1"/>
	<rect x="238.7" y="406" width="22.7" height="1.1"/>
	<rect x="238.7" y="409" width="22.7" height="1.1"/>
	<rect x="238.7" y="411.9" width="22.7" height="1.1"/>
	<rect x="238.7" y="414.9" width="22.7" height="1.1"/>
	<rect x="238.7" y="417.9" width="22.7" height="1.1"/>
	<rect x="238.7" y="420.9" width="22.7" height="1.1"/>
	<rect x="238.7" y="423.8" width="22.7" height="1.1"/>
	<rect x="238.7" y="426.8" width="22.7" height="1.1"/>
	<rect x="238.7" y="429.8" width="22.7" height="1.1"/>
	<rect x="238.7" y="432.7" width="22.7" height="1.1"/>
	<rect x="238.7" y="435.7" width="22.7" height="1.1"/>
	<rect x="238.7" y="438.7" width="22.7" height="1.1"/>
	<rect x="238.7" y="441.7" width="22.7" height="1.1"/>
	<rect x="238.7" y="444.6" width="22.7" height="1.1"/>
	<rect x="238.7" y="447.6" width="22.7" height="1.1"/>
	<rect x="238.7" y="450.6" width="22.7" height="1.1"/>
	<rect x="238.7" y="453.5" width="22.7" height="1.1"/>
	<rect x="238.7" y="456.5" width="22.7" height="1.1"/>
	<rect x="238.7" y="459.5" width="22.7" height="1.1"/>
	<rect x="238.7" y="462.5" width="22.7" height="1.1"/>
	<rect x="238.7" y="465.4" width="22.7" height="1.1"/>
	<rect x="238.7" y="468.4" width="22.7" height="1.1"/>
</g>
<polygon points="231.5,473.5 230.2,384.2 230.2,474.9 334.7,474.9 "/>
<rect x="284.1" y="400.2" class="st35" width="38.2" height="38.2"/>
<ellipse class="st36" cx="303.7" cy="417.7" rx="15.8" ry="17.5"/>
<path class="st34" d="M316,423.4c0.7,0.4,1,2.3,0.9,3.1l-3.6,3.8c-0.8,0.1-2.8,0-3.2-0.7l-5.3,1.6c0.1,0.8-1.5,2-2.2,2.4l-5.1-1.2
	c-0.5-0.7-1.4-2.4-1-3.1l-4-3.8c-0.7,0.5-2.4-0.3-3.2-0.7l-1.5-5c0.4-0.8,1.4-2.4,2.2-2.4l1.2-5.4c-0.7-0.4-1-2.3-0.9-3.1l3.6-3.8
	c0.8-0.1,2.8,0,3.2,0.7l5.3-1.6c-0.1-0.8,1.5-2,2.2-2.4l5.1,1.2c0.5,0.7,1.4,2.4,1,3.1l4,3.8c0.7-0.5,2.4,0.3,3.2,0.7l1.5,5
	c-0.4,0.8-1.4,2.4-2.2,2.4L316,423.4z"/>
<rect x="175.4" y="474.9" class="st37" width="189.4" height="7.5"/>
<circle class="st38" cx="303.7" cy="417.9" r="4.1"/>
<path class="st39" d="M292.7,397.6h-24.2c-2.9,0-5.2-2.3-5.2-5.2l0,0c0-2.9,2.3-5.2,5.2-5.2h24.2c2.9,0,5.2,2.3,5.2,5.2l0,0
	C297.9,395.3,295.5,397.6,292.7,397.6z"/>
<rect x="267.4" y="391.1" class="st40" width="26.8" height="1.1"/>
</svg>
